<?xml version="1.0" encoding="utf-8"?>
<!-- Generator: Adobe Illustrator 24.0.3, SVG Export Plug-In . SVG Version: 6.00 Build 0)  -->
<svg version="1.1" id="BLACK" xmlns="http://www.w3.org/2000/svg" xmlns:xlink="http://www.w3.org/1999/xlink" x="0px" y="0px"
	 viewBox="0 0 792 612" style="enable-background:new 0 0 792 612;" xml:space="preserve">
<path d="M764.1,187.3c-14.3-7.6-28.5-15.7-43.1-22.7c-2.6-1.2-6.2-2-8.7,0c-21.9,17.2-45.4,32.5-68,48.8c-3.7,2.7-7.4,5.4-11.1,8.1
	c2.8-3.3,5.6-6.7,8.3-10.1c8.4-10.7,19.4-23.6,20.6-37.8c1.1-12.1-6.6-22.2-16.4-28c-11.2-6.6-24.5-8.5-37.2-10
	c-13.5-1.7-27.1-2.1-40.7-2.8c-7.7-0.4-15.4-0.9-23-2c-5.6-0.7-13-1-17.6-4.7c-0.5-0.4-0.6-1-0.7-1.3c0.2-0.7,0.5-1.3,0.9-1.9
	c1.8-2.7,4.3-5.2,6.5-7.6c5.4-6,11.2-11.4,17.2-16.7c2.5-2.2,2.9-5.8,2.3-8.8c-3.2-16.5-4.7-33.2-4.8-50c0-6-7.2-11.1-12.5-7.3
	c-20.5,14.7-41.3,28.8-61.9,43.3c-10,7-20.1,14.1-30.1,21.1c-4.8,3.4-9.8,6.6-14.6,10c-1.3,0.9-2.6,1.8-3.8,2.7
	c0.3-5.4,0.7-10.8,1.1-16.2c0.4-5.1,0.2-11.3,1.3-16.5c5.3-5.6,0.8-17.2-7.7-14.1c-0.7,0.3-1.3,0.6-1.9,0.9c0,0,0,0,0-0.1
	c-23.6,15.6-46.8,31.8-70.2,47.8c-11.6,7.9-23.1,15.8-34.7,23.7c-5.1,3.5-10.1,7.2-15.1,10.9c4.8-19,9.9-37.9,16.4-56.4
	c2.6-7.5-7.3-15.8-13.8-10.9c-51.8,39.1-100.8,82.1-146.3,128.8c-12.8,13.2-25,26.9-37.6,40.2c-4.3,4.6-3.1,11.4,1.9,14.8
	c1,0.7,1.9,1.3,2.8,2c-0.4,0-0.7,0.1-1,0.2c-15.8-1.9-31.4-5.4-47.1-8.5c-1.6-4.5-8.6-5.5-10.2,0.2c-6.1,21.3-11.2,43-17.8,64.2
	c-1.7,5.3,2.8,10.2,7.8,10.4c9.2,0.4,18.5-0.2,27.8-1c-0.4,1-0.7,2.1-1,3.1c-0.1,0.2-0.1,0.5-0.2,0.7c-0.3,1-0.6,2.1-0.8,3.1
	c0,0,0,0.1,0,0.1c-0.2,1-0.4,2.1-0.6,3.1c0,0.2-0.1,0.4-0.1,0.6c-0.2,1.1-0.3,2.2-0.5,3.3c0,0,0,0.1,0,0.1c-0.1,1.1-0.2,2.2-0.3,3.3
	c0,0.1,0,0.2,0,0.4c-0.1,1.2-0.1,2.3-0.1,3.5c0,0,0,0,0,0c0,1.2,0,2.4,0,3.5c0,0,0,0.1,0,0.1c0,1.2,0.1,2.4,0.2,3.6c0,0,0,0,0,0l0,0
	c1.3,15.6,7.2,30.9,16.6,43.4c18.2,24.4,47.4,37.7,76.3,43c1.7,0.3,3.5,0.6,5.2,0.9c0.5,0.1,1,0.1,1.5,0.2c1.4,0.2,2.7,0.4,4.1,0.5
	c0.4,0,0.8,0.1,1.3,0.2c1.7,0.2,3.3,0.3,5,0.5c0.6,0,1.2,0.1,1.8,0.1c1.1,0.1,2.3,0.2,3.4,0.2c0.7,0,1.4,0.1,2.1,0.1
	c1.4,0.1,2.7,0.1,4.1,0.1c1,0,1.9,0,2.9,0c0.9,0,1.8,0,2.7,0c0.9,0,1.9,0,2.8-0.1c0.7,0,1.4,0,2.1-0.1c2-0.1,3.9-0.2,5.9-0.3
	c0.4,0,0.8-0.1,1.1-0.1c1.1-0.1,2.3-0.2,3.4-0.3c0.4,0,0.9-0.1,1.3-0.1c3.8-0.4,7.5-0.9,11.2-1.6c0.3,0,0.5-0.1,0.8-0.1
	c1.3-0.2,2.5-0.5,3.8-0.7c0,0,0,0,0,0l0,0c9.2-1.8,18.2-4.4,26.9-7.8c8.2-3.1,16.8-6.7,24.5-11.6c1,0.5,1.9,1.1,2.9,1.6
	c3.2,1.7,6.5,3.1,9.8,4.5c6.1,2.6,12.4,4.6,18.8,5.9c13.1,2.6,26.6,2.7,39.5-0.8c16.9-4.6,31.8-14.7,43.6-27.7
	c0.2-0.2,0.3-0.4,0.5-0.6c0.5-0.6,1.1-1.2,1.6-1.8c0.3-0.4,0.7-0.8,1-1.2c0.4-0.5,0.8-0.9,1.2-1.4c0.7-0.9,1.5-1.8,2.2-2.8
	c2.5,11.3,5.6,22.3,9.2,33.4c2.9,8.8,5.8,17.8,9.4,26.4c2.9,6.8,7.5,13.7,14.6,16.3c4.2,1.6,8.9,1.8,12.8-0.9
	c3.6-2.5,6.3-6.9,9.3-10.1c5.9-6.4,12.4-12.1,19.1-17.7c13.5-11.3,27.4-22,41.6-32.3c6.2-4.5,12.5-8.9,18.9-13.2
	c1.1,13.8,3.6,27.5,6.5,41c1.7,8.1,3.5,16.1,5.2,24.2c1.6,7.4,3,14.9,6.6,21.6c3.5,6.3,9.2,11.5,16,13.5c7.8,2.3,15.6-0.6,22.3-4.6
	c13.6-8.1,27-16.6,40.4-24.9c7.7-4.7,15.4-9.5,23.1-14.2c5.7-3.5,12.8-8.6,19.8-7.1c6.5,1.4,14.5-4.6,11.8-12.1
	c-7.1-19.6-13.8-39.4-20.5-59.2c-6.3-18.8-12.3-38.3-12.1-58.3c0.4-35.5,26.2-67.1,51.6-88.8c14.6-12.5,31.3-22.3,48.7-29.8
	C770.7,201.2,769.9,190.4,764.1,187.3z M296.3,390.3c-2.4,4.8-5.1,9.3-8.8,13.1c-5.1-0.4-9.8,1.9-12,8.3c0,0.1-0.1,0.2-0.1,0.3
	c-2.4,1.3-4.9,2.5-7.3,3.6c-15,7-31.1,11.4-47.5,13.3c-1.3,0.2-2.7,0.3-4,0.4c-0.1,0-0.2,0-0.2,0c-3.8,0.3-7.6,0.5-11.4,0.6
	c-0.3,0-0.6,0-0.9,0c-0.9,0-1.8,0-2.6,0c-0.7,0-1.5,0-2.2,0c-0.7,0-1.5,0-2.2-0.1c-0.9,0-1.9-0.1-2.8-0.1c-0.6,0-1.1,0-1.7-0.1
	c-1.5-0.1-3.1-0.2-4.6-0.3c-3.2-0.3-6.4-0.6-9.6-1.1c-21.9-3.3-44.1-11.4-60.4-26.7c-10.3-9.7-17.9-21.9-21.1-36
	c-1.2-5.1-1.5-10-1.2-14.9l0,0c0.1-1.7,0.3-3.4,0.6-5.1c0,0,0,0,0,0c0.3-1.6,0.6-3.3,1-4.9c0-0.1,0.1-0.3,0.1-0.4
	c0.2-0.9,0.5-1.8,0.8-2.6c0.1-0.2,0.1-0.4,0.2-0.5c0.1-0.4,0.3-0.8,0.4-1.3c0.1-0.3,0.2-0.7,0.3-1c0.2-0.5,0.4-1,0.5-1.4
	c0.2-0.5,0.4-1,0.6-1.5c0.1-0.3,0.2-0.6,0.4-0.9c0.2-0.6,0.5-1.1,0.7-1.7c0.1-0.2,0.1-0.3,0.2-0.5c0.3-0.7,0.7-1.4,1-2.1
	c0.1-0.2,0.2-0.4,0.3-0.6c0.4-0.7,0.7-1.4,1.1-2.2c3.9-7.3-2.5-14.6-9.9-13.2c-10.3,2-20.5,2.5-30.9,3.1c3.2-17.2,7-34.2,10.2-51.4
	c13.6,5.8,27.7,10.3,41.8,14.6c0.1,0.2,0.1,0.3,0.2,0.5c7.2,15.8,16.7,30.5,28.1,43.4c5.7,6.5,12,13,18.9,18.1
	c9.3,6.9,19.6,1.9,22.3-9.1c2.3-9.3-2.1-18.5-6.7-26.2c-4.3-7.2-8.8-14.4-13.7-21.3c-7.8-11.1-16.4-21.7-26.8-30
	c18.7-21.2,39.1-41.2,59.4-60.7c23.1-22.1,47-43.4,71.7-63.7c6.3-5.2,12.7-10.3,19.1-15.3c-5.1,17.6-9.3,35.4-13.4,53.3
	c-0.6,2.4-0.3,4.6,0.6,6.3c-1.9,10.1-3.4,20.4-4.6,30.6c-1.1,9.2-2.1,18.6-2.4,27.9c-0.1,3.3-0.2,7.8,0.7,11.6
	c-1.2,1.1-2.5,2-3.4,2.9c-2.2,2.1-4.4,4.2-6.7,6.4c-3.4,3.3-9.4,7.2-9.1,12.6c0,0.1,0,0.2,0,0.3c-1.8,2.7-2.3,6.4-0.5,9.2
	c16.8,25.5,33.4,51.4,47.3,78.7c0.6,1.1,1.1,2.3,1.7,3.4c2.2,4.9,4,10,4.1,15.4C302,378.2,299.2,384.5,296.3,390.3z M137.5,282.1
	c0.7-0.3,1.4-0.6,2-1c3.1,3.6,6,7.4,8.7,11.3c4.2,6,8.2,12.3,12.2,18.5c1.2,1.9,2.5,3.8,3.6,5.7c-1.3-1.3-2.3-2.5-2.9-3.1
	c-4.3-4.4-8.3-9-12-13.8C144.7,294.1,140.9,288.2,137.5,282.1z M403.4,375.7c-0.6,1.2-1.3,2.4-2,3.5c0,0,0,0,0,0
	c-2.1,3.5-4.4,6.9-6.9,10.1c-9.9,12.8-23.1,23-38.6,27.4c-13.2,3.8-27.1,2.7-40.1-1.5c-3.9-1.2-7.6-2.8-11.2-4.5
	c9.2-12.1,16.8-28.7,14.9-44.3c-1.1-9.7-5.1-18.5-9.6-27c-4.5-8.6-9.3-17-14.3-25.4c-10-16.8-20.6-33.1-32.3-48.7
	c-0.5-0.6-1-1.2-1.6-1.8c1.2-1,2.3-2,3.4-2.8c2.2-1.7,4.4-3.3,6.6-5c2.2-1.7,5.5-5,8.2-5.7c5.1-1.4,6.4-6.9,4.2-11.1
	c0-0.2,0-0.4,0-0.6c0.1-0.6,0.1-1.2,0.2-1.9c0.1-1.9,0.4-3.7,0.5-5.6c0.3-3.7,0.5-7.4,0.8-11.2c0.7-7.6,1.5-15.1,2.5-22.7
	c1.3-9.5,2.9-18.9,4.7-28.2c0.6-2.4,1.2-4.8,1.7-7.1c8.5-4.4,16.7-9.9,24.6-14.9c12.1-7.6,24.1-15.4,36.1-23.1
	c18.5-11.8,37-23.5,55.5-35.4c-0.5,5.5-1,11-1.3,16.5c-0.9,13.9-1.4,27.8-1.7,41.7c-10.3,4.2-18.8,10.9-20,23.6
	c-0.6,6.2,1.1,12.6,2.6,18.5c2,7.8,4.2,15.5,6.4,23.2c8,27.8,16.6,55.8,19.2,84.8C418.5,323.4,416.4,351.8,403.4,375.7z M670,254.7
	c-12.1,16.6-21.8,35.3-24.4,56c-2.8,21.7,1.9,43.5,8.3,64.1c6.1,19.7,13.2,39,19.9,58.5c-12.5,2.9-24.2,11.8-34.9,18.4
	c-16.1,9.9-32,20.2-48.3,29.7c-2,1.1-4.4,2.8-6.7,2c-2.7-0.9-4.3-4.5-5.2-6.9c-3-8.2-4.1-17.6-6-26.1c-4.1-19.1-8-38.1-15.3-56.2
	c6.9-4.3,13.9-8.4,20.3-13.1c10.3-7.6,1.6-23.3-10-17.5c-12.1,6-23.5,14.5-34.7,22.1c-11.1,7.6-22,15.5-32.7,23.6
	c-10.8,8.2-21.3,16.7-31.6,25.6c-4.7,4-9.2,8.1-13.6,12.5c-3.1,3.2-6.9,6.8-9.9,10.7c-2.3-2.6-5-8.5-5.7-10
	c-3.6-7.4-7-14.9-10.1-22.6c-4.6-11.5-8.8-23.2-12.8-35c28.1-46.4,18.5-105.1,4.9-154.9c-4.2-15.5-8.9-30.8-13.1-46.3
	c-1.6-5.7-5.1-13.9-3.2-19.9c1.7-5.1,8.6-6.9,13-8.3c3.5-1.2,6.3-4.4,6.2-8.3c-0.1-10.7,0.1-21.4,0.5-32.1c2.5-1,5-1.9,7.4-3
	c5.3-2.4,10.3-5.8,15.3-8.9c10.8-6.8,21.6-13.7,32.4-20.6c17.4-11,34.6-22.3,52-33.2c0.4,11.3,1.5,22.5,3.1,33.7
	c-4.1,3.6-8.1,7.3-11.8,11.2c-4.5,4.7-9.6,9.7-12.8,15.5c-7.2,13.4,2.4,26.6,15.2,30.8c13.1,4.3,28.3,4.6,41.9,5.4
	c13.6,0.8,27.2,1.1,40.7,2.9c10.1,1.3,23,2.8,31.2,9.8c8.9,7.5-0.4,18.4-5.5,25.8c-15.9,22.8-36.7,42.4-56.2,62
	c-20.6,20.8-41.8,40.8-62.8,61.1c-3.7,0.1-7.4,2.2-8.8,6.9c-0.5,1.7-1,3.4-1.5,5.1c-3,9.9,9.5,16.3,16.3,9.7
	c21-20.1,41.7-40.7,62.2-61.4c3.6-3.6,7.2-7.2,10.8-10.8c1.8-0.7,3.6-1.5,5.4-2.3c5.9-2.6,11.3-6.3,16.7-9.9
	c11.7-7.7,23.3-15.5,34.9-23.3c21.9-14.7,43.2-30.6,65.5-44.8c7.1,4.3,14.3,8.3,21.5,12.3C711.4,209.3,688.2,229.8,670,254.7z"/>
<g>
	<path d="M338.6,302.9c-1.1-2.1-2-4.4-2.8-6.2c-1.4-3.1-2.7-6.3-3.8-9.5c-2.7-7.5-5.3-14.9-7.7-22.6c-2.3-7.3-4.1-14.7-5.8-22.2
		c-1.5-6.7-1.9-15.3-5.5-21.3c-0.3-1.1-2.2-1.4-2.6,0c-1.9,7,0.4,16,1.1,23.1c0.8,7.8,1.6,15.7,2.6,23.5c1,7.8,2.1,15.7,3.9,23.3
		c0.9,4,1.9,8,3,11.9c0.6,2.2,1.6,4.7,2.3,7.1c-0.1,1.6,0.1,3.1,0.7,4.7c1.3,12.4,19.5,12.1,20-0.9
		C344.3,308.9,342.1,305.7,338.6,302.9z"/>
	<path d="M359.8,296.2c-2-3.9-3.5-8-5-12.1c-3.4-9.4-6.3-19-8.9-28.7c-2.6-9.6-5.3-19.2-7.8-28.9c-1.2-4.8-2.3-9.7-3.4-14.5
		c-0.7-3.4-0.6-5.8-3.4-7.7c-0.3-0.2-0.9-0.2-1.2,0.2c-2.3,2.8-1.4,5.8-1.1,9.3c0.4,5.3,0.9,10.5,1.4,15.7c0.9,10.5,2.4,20.7,4.4,31
		c2,10.1,4.1,20.2,6.3,30.2c1,4.6,2.1,9.2,3.6,13.7c1.8,5.5,3.3,11.4,8.6,14.4c7.6,4.2,14.5-2.7,13.4-10.5
		C366,303.6,361.9,300.3,359.8,296.2z"/>
	<path d="M519.9,218.7c4.2-2.2,8.6-3.9,13.1-5.1c2.2-0.6,4.4-1.1,6.7-1.1c0.9,0,2-0.2,3,0c0,0.2,1.3,0.8,1.7,1.1
		c5.5,2.7,12.7-0.5,12.6-7.4c-0.2-11.8-11.9-11.8-20.2-10.2c-7.6,1.5-14.7,4.7-21,9.3c-6.3,4.5-12.1,9.9-17.4,15.6
		c-4.9,5.3-8,11.5-6,18.9c0.6,2.1,3.9,2.3,4.4,0c1.1-4.9,6.7-8.9,10.4-12.1C511.1,224.1,515.4,221.2,519.9,218.7z"/>
</g>
</svg>
