<?xml version="1.0" encoding="utf-8"?>
<!-- Generator: Adobe Illustrator 24.0.3, SVG Export Plug-In . SVG Version: 6.00 Build 0)  -->
<svg version="1.1" id="BLINGS" xmlns="http://www.w3.org/2000/svg" xmlns:xlink="http://www.w3.org/1999/xlink" x="0px" y="0px"
	 viewBox="0 0 124.6 115.4" style="enable-background:new 0 0 124.6 115.4;" xml:space="preserve">
<style type="text/css">
	.st0{fill:#C7EAF8;}
	.st1{fill:#FFFFFF;}
</style>
<path class="st0" d="M107.3,0c0,0-39.3,44.5-50,42.6C46.5,40.6,0,13.9,0,13.9S42.4,49.1,43,59S6,115.4,6,115.4s50.5-44.2,59.5-43.1
	c9,1.1,59.1,31.9,59.1,31.9S78.2,63.6,79.3,54.5C80.4,45.5,107.3,0,107.3,0z"/>
<path class="st1" d="M43.3,45c5.4,2.4,9.9,4.2,12.7,4.7c2,0.4,4.1,0.2,6.4-0.5c4-1.3,9.2-4.7,14.7-9.1c-2.7,5.9-4.7,10.8-5,13.5
	c-0.4,3.2,0.2,7.1,7.9,16.6c-9.5-4.7-12.1-5-13.6-5.2c-1.6-0.2-3.3,0-5.2,0.6c0,0,0,0,0,0c-4.1,1.3-10.3,5.1-17.3,10
	c6.8-11.5,6.6-15,6.5-17.1C50.1,55.7,48.9,51.9,43.3,45z"/>
</svg>
