<?xml version="1.0" encoding="utf-8"?>
<!-- Generator: Adobe Illustrator 24.0.3, SVG Export Plug-In . SVG Version: 6.00 Build 0)  -->
<svg version="1.1" id="BLINGS" xmlns="http://www.w3.org/2000/svg" xmlns:xlink="http://www.w3.org/1999/xlink" x="0px" y="0px"
	 viewBox="0 0 792 612" style="enable-background:new 0 0 792 612;" xml:space="preserve">
<style type="text/css">
	.st0{fill:#C7EAF8;}
	.st1{fill:#FFFFFF;}
</style>
<path class="st0" d="M223.9,229.6c0,0,8.7-58.8,18.8-63c10.1-4.2,63.6-7.2,63.6-7.2s-54.7-6.4-60.7-14.4c-6-8,0.3-67.5,0.3-67.5
	s-18.3,64.6-26.4,68.6s-67,5.5-67,5.5s61.1,8.8,65.1,16.9S223.9,229.6,223.9,229.6z"/>
<path class="st1" d="M253.1,157c-5.8,0.9-10.6,1.9-13.2,3c-1.8,0.8-3.6,2.1-5.1,3.9c-2.7,3.3-5.2,8.9-7.4,15.6
	c-0.9-6.4-2-11.6-3.2-14.1c-1.4-2.8-4-5.9-15.7-9.6c10.5-1.2,12.9-2.4,14.2-3c1.4-0.7,2.8-1.8,4-3.3c0,0,0,0,0,0
	c2.7-3.3,5.9-9.9,9.1-17.8c0.5,13.4,2.6,16.1,3.9,17.9C241.5,151.8,244.6,154.3,253.1,157z"/>
<path class="st0" d="M522.2,495.8c0,0,42.2-41.8,52.8-39.1s55.2,32.4,55.2,32.4s-39.9-38-39.9-47.9c0-10,40.8-53.8,40.8-53.8
	s-53.4,40.6-62.3,39c-8.9-1.7-56.8-35.8-56.8-35.8s43.5,43.7,41.9,52.6C552.1,452.2,522.2,495.8,522.2,495.8z"/>
<path class="st1" d="M589.1,455.2c-5.2-2.8-9.6-4.8-12.3-5.5c-1.9-0.5-4.1-0.5-6.4,0.1c-4.1,1-9.5,4-15.3,8.1
	c3.1-5.7,5.4-10.4,5.9-13.2c0.6-3.1,0.3-7.1-6.7-17.1c9.2,5.4,11.7,5.8,13.2,6.1c1.6,0.3,3.3,0.2,5.2-0.2c0,0,0,0,0,0
	c4.2-1,10.7-4.4,17.9-8.8c-7.6,11-7.6,14.5-7.6,16.6C583,444.1,584,447.9,589.1,455.2z"/>
</svg>
