<?xml version="1.0" encoding="utf-8"?>
<!-- Generator: Adobe Illustrator 24.0.3, SVG Export Plug-In . SVG Version: 6.00 Build 0)  -->
<svg version="1.1" id="BUBBLES" xmlns="http://www.w3.org/2000/svg" xmlns:xlink="http://www.w3.org/1999/xlink" x="0px" y="0px"
	 viewBox="0 0 792 612" style="enable-background:new 0 0 792 612;" xml:space="preserve">
<style type="text/css">
	.st0{fill:#FAC1C0;}
</style>
<path class="st0" d="M139.8,381.9c-5.5,0-10.8,1-15.6,2.9c0,0,0,0,0-0.1c0-18.8-12.7-34.1-28.3-34.1c-0.1,0-0.2,0-0.2,0
	c-6.7,0.1-12.9,3-17.7,7.8c1.3,15.6,7.2,30.9,16.6,43.4c17.7,23.7,45.9,37,74,42.5c4.6-4.5,8.1-10,9.8-16.2c0.8-3,1.3-6.1,1.3-9.3
	C179.7,398.4,161.8,381.9,139.8,381.9z"/>
<ellipse class="st0" cx="217.2" cy="291.2" rx="11" ry="12.1"/>
<path class="st0" d="M394.5,389.4c-10.3-23.3-29.6-45.5-55.4-46.7c-10.5-0.5-19,0.9-25.8,3.5c-6.5,2.5-11.5,6-15.4,10
	c-0.3,0.3-0.6,0.6-0.9,0.9c-9-13-22.8-21.3-38.2-21.3c-27.1,0-49.1,25.6-49.1,57.2c0,13.6,4.1,26.2,10.9,36
	c4.5,6.5,10.2,11.8,16.7,15.4c9.2-1.8,18.2-4.4,26.9-7.8c8.2-3.1,16.8-6.7,24.5-11.6c1,0.5,1.9,1.1,2.9,1.6c1.7,0.9,3.4,1.7,5.2,2.5
	c0.6-0.8,1.2-1.7,1.7-2.6c0.5,1.4,1.1,2.7,1.6,4c0.4,0.2,0.9,0.4,1.3,0.6c6.1,2.6,12.4,4.6,18.8,5.9c13.1,2.6,26.6,2.7,39.5-0.8
	c16-4.3,30.2-13.6,41.7-25.6C400,403.8,397.7,396.5,394.5,389.4z"/>
<path class="st0" d="M577.8,381.1c-6.5,4.8-13.5,8.9-20.3,13.1c7.3,18.1,11.2,37.1,15.3,56.2c1.8,8.6,2.9,17.9,6,26.1
	c0.9,2.5,2.5,6,5.2,6.9c2.3,0.8,4.7-0.9,6.7-2c16.3-9.5,32.2-19.8,48.3-29.7c10.7-6.6,22.4-15.5,34.9-18.4
	c-6.7-19.5-13.8-38.8-19.9-58.5c-6.4-20.6-11.1-42.4-8.3-64.1c0.5-4.3,1.4-8.5,2.5-12.6c-1,0.2-2,0.4-3,0.6
	c-4.6,1.2-9.6,3.2-14.7,5.8c0.6-1.8,0.9-3.8,0.9-5.8c0-10.8-8.8-19.6-19.6-19.6s-19.6,8.8-19.6,19.6c0,10.2,7.7,18.5,17.7,19.5
	c-15.3,12.1-30.8,28.5-43.7,46.2c0.6-0.3,1.2-0.6,1.8-0.9C579.4,357.8,588.2,373.5,577.8,381.1z"/>
<path class="st0" d="M494.4,374c5.2-2.9,8.7-8.6,8.7-15.2c0-9.6-7.5-17.3-16.7-17.3c-9.3,0-16.7,7.8-16.7,17.3c0,4,1.3,7.7,3.5,10.6
	c-23.3,2.3-41.6,27.4-41.6,58.1c0,0.9,0,1.8,0.1,2.7c2.5,6,5.2,12,8.1,17.8c0.8,1.5,3.4,7.5,5.7,10c2.9-3.9,6.7-7.5,9.9-10.7
	c4.3-4.4,8.9-8.5,13.6-12.5c10.3-8.9,20.9-17.3,31.6-25.6c5-3.8,10-7.5,15-11.2C510.6,387.5,503.2,378.9,494.4,374z"/>
<ellipse transform="matrix(0.9732 -0.2298 0.2298 0.9732 -54.2521 108.4049)" class="st0" cx="438.4" cy="287.2" rx="31.2" ry="31.2"/>
<ellipse transform="matrix(0.7071 -0.7071 0.7071 0.7071 -79.2093 357.7121)" class="st0" cx="392.2" cy="274.5" rx="13.9" ry="13.9"/>
</svg>
