<?xml version="1.0" encoding="utf-8"?>
<!-- Generator: Adobe Illustrator 24.0.3, SVG Export Plug-In . SVG Version: 6.00 Build 0)  -->
<svg version="1.1" id="FILL" xmlns="http://www.w3.org/2000/svg" xmlns:xlink="http://www.w3.org/1999/xlink" x="0px" y="0px"
	 viewBox="0 0 792 612" style="enable-background:new 0 0 792 612;" xml:space="preserve">
<style type="text/css">
	.st0{fill:url(#SVGID_1_);}
	.st1{fill:url(#SVGID_2_);}
	.st2{fill:url(#SVGID_3_);}
	.st3{fill:url(#SVGID_4_);}
	.st4{fill:url(#SVGID_5_);}
</style>
<g>
	<g>
		<linearGradient id="SVGID_1_" gradientUnits="userSpaceOnUse" x1="571.6552" y1="462" x2="571.6552" y2="107.2268">
			<stop  offset="0" style="stop-color:#A6E61B"/>
			<stop  offset="0.9954" style="stop-color:#215C56"/>
		</linearGradient>
		<path class="st0" d="M651.2,227.4c-11.6,7.8-23.2,15.6-34.9,23.3c-5.4,3.6-10.8,7.2-16.7,9.9c-1.8,0.8-3.6,1.6-5.4,2.3
			c-3.6,3.6-7.2,7.2-10.8,10.8c-20.5,20.6-41.2,41.2-62.2,61.4c-6.9,6.6-19.3,0.2-16.3-9.7c0.5-1.7,1-3.4,1.5-5.1
			c1.4-4.8,5.1-6.9,8.8-6.9c21-20.3,42.2-40.4,62.8-61.1c19.4-19.6,40.2-39.2,56.2-62c5.1-7.3,14.3-18.2,5.5-25.8
			c-8.2-7-21.1-8.5-31.2-9.8c-13.5-1.8-27.1-2.1-40.7-2.9c-13.6-0.8-28.8-1.1-41.9-5.4c-12.7-4.2-22.4-17.4-15.2-30.8
			c3.1-5.8,8.2-10.8,12.8-15.5c3.8-3.9,7.7-7.7,11.8-11.2c-1.7-11.2-2.7-22.4-3.1-33.7c-17.4,11-34.6,22.2-52,33.2
			c-10.8,6.9-21.6,13.7-32.4,20.6c-5,3.1-9.9,6.5-15.3,8.9c-2.4,1.1-4.9,2.1-7.4,3c-0.4,10.7-0.7,21.4-0.5,32.1
			c0.1,3.9-2.7,7.2-6.2,8.3c-4.4,1.5-11.3,3.2-13,8.3c-2,6,1.6,14.2,3.2,19.9c4.2,15.5,8.9,30.8,13.1,46.3
			c13.6,49.8,23.2,108.5-4.9,154.9c3.9,11.8,8.2,23.5,12.8,35c3.1,7.7,6.4,15.2,10.1,22.6c0.8,1.5,3.4,7.5,5.7,10
			c2.9-3.9,6.7-7.5,9.9-10.7c4.3-4.4,8.9-8.5,13.6-12.5c10.3-8.9,20.9-17.3,31.6-25.6c10.7-8.2,21.6-16,32.7-23.6
			c11.2-7.6,22.6-16.1,34.7-22.1c11.6-5.7,20.4,9.9,10,17.5c-6.5,4.8-13.5,8.9-20.3,13.1c7.3,18.1,11.2,37.1,15.3,56.2
			c1.8,8.6,2.9,17.9,6,26.1c0.9,2.5,2.5,6,5.2,6.9c2.3,0.8,4.7-0.9,6.7-2c16.3-9.5,32.2-19.8,48.3-29.7
			c10.7-6.6,22.4-15.5,34.9-18.4c-6.7-19.5-13.8-38.8-19.9-58.5c-6.4-20.6-11.1-42.4-8.3-64.1c2.6-20.7,12.3-39.4,24.4-56
			c18.2-25,41.4-45.5,68.3-59.8c-7.2-4-14.5-8.1-21.5-12.3C694.4,196.8,673.1,212.7,651.2,227.4z"/>
	</g>
	<g>
		<g>
			<linearGradient id="SVGID_2_" gradientUnits="userSpaceOnUse" x1="571.6552" y1="462" x2="571.6552" y2="107.2268">
				<stop  offset="0" style="stop-color:#A6E61B"/>
				<stop  offset="0.9954" style="stop-color:#215C56"/>
			</linearGradient>
			<path class="st1" d="M651.2,227.4c-11.6,7.8-23.2,15.6-34.9,23.3c-5.4,3.6-10.8,7.2-16.7,9.9c-1.8,0.8-3.6,1.6-5.4,2.3
				c-3.6,3.6-7.2,7.2-10.8,10.8c-20.5,20.6-41.2,41.2-62.2,61.4c-6.9,6.6-19.3,0.2-16.3-9.7c0.5-1.7,1-3.4,1.5-5.1
				c1.4-4.8,5.1-6.9,8.8-6.9c21-20.3,42.2-40.4,62.8-61.1c19.4-19.6,40.2-39.2,56.2-62c5.1-7.3,14.3-18.2,5.5-25.8
				c-8.2-7-21.1-8.5-31.2-9.8c-13.5-1.8-27.1-2.1-40.7-2.9c-13.6-0.8-28.8-1.1-41.9-5.4c-12.7-4.2-22.4-17.4-15.2-30.8
				c3.1-5.8,8.2-10.8,12.8-15.5c3.8-3.9,7.7-7.7,11.8-11.2c-1.7-11.2-2.7-22.4-3.1-33.7c-17.4,11-34.6,22.2-52,33.2
				c-10.8,6.9-21.6,13.7-32.4,20.6c-5,3.1-9.9,6.5-15.3,8.9c-2.4,1.1-4.9,2.1-7.4,3c-0.4,10.7-0.7,21.4-0.5,32.1
				c0.1,3.9-2.7,7.2-6.2,8.3c-4.4,1.5-11.3,3.2-13,8.3c-2,6,1.6,14.2,3.2,19.9c4.2,15.5,8.9,30.8,13.1,46.3
				c13.6,49.8,23.2,108.5-4.9,154.9c3.9,11.8,8.2,23.5,12.8,35c3.1,7.7,6.4,15.2,10.1,22.6c0.8,1.5,3.4,7.5,5.7,10
				c2.9-3.9,6.7-7.5,9.9-10.7c4.3-4.4,8.9-8.5,13.6-12.5c10.3-8.9,20.9-17.3,31.6-25.6c10.7-8.2,21.6-16,32.7-23.6
				c11.2-7.6,22.6-16.1,34.7-22.1c11.6-5.7,20.4,9.9,10,17.5c-6.5,4.8-13.5,8.9-20.3,13.1c7.3,18.1,11.2,37.1,15.3,56.2
				c1.8,8.6,2.9,17.9,6,26.1c0.9,2.5,2.5,6,5.2,6.9c2.3,0.8,4.7-0.9,6.7-2c16.3-9.5,32.2-19.8,48.3-29.7
				c10.7-6.6,22.4-15.5,34.9-18.4c-6.7-19.5-13.8-38.8-19.9-58.5c-6.4-20.6-11.1-42.4-8.3-64.1c2.6-20.7,12.3-39.4,24.4-56
				c18.2-25,41.4-45.5,68.3-59.8c-7.2-4-14.5-8.1-21.5-12.3C694.4,196.8,673.1,212.7,651.2,227.4z"/>
		</g>
	</g>
	<g>
		<g>
			<linearGradient id="SVGID_3_" gradientUnits="userSpaceOnUse" x1="182.7013" y1="462" x2="182.7013" y2="107.2268">
				<stop  offset="0" style="stop-color:#A6E61B"/>
				<stop  offset="0.9954" style="stop-color:#215C56"/>
			</linearGradient>
			<path class="st2" d="M249,274c-1.8-2.8-1.4-6.5,0.5-9.2c0-0.1,0-0.2,0-0.3c-0.3-5.4,5.6-9.2,9.1-12.6c2.2-2.1,4.4-4.3,6.7-6.4
				c1-0.9,2.2-1.9,3.4-2.9c-0.9-3.8-0.9-8.3-0.7-11.6c0.3-9.3,1.3-18.6,2.4-27.9c1.2-10.3,2.7-20.5,4.6-30.6
				c-0.8-1.8-1.1-3.9-0.6-6.3c4.1-17.9,8.4-35.7,13.4-53.3c-6.4,5.1-12.8,10.2-19.1,15.3c-24.7,20.3-48.6,41.5-71.7,63.7
				c-20.3,19.5-40.7,39.5-59.4,60.7c10.5,8.4,19.1,18.9,26.8,30c4.8,6.9,9.3,14.1,13.7,21.3c4.6,7.7,9,16.9,6.7,26.2
				c-2.7,11-13,16-22.3,9.1c-6.9-5.2-13.2-11.6-18.9-18.1c-11.4-13-21-27.6-28.1-43.4c-0.1-0.2-0.1-0.3-0.2-0.5
				c-14.1-4.2-28.2-8.7-41.8-14.6c-3.3,17.1-7.1,34.2-10.2,51.4c10.3-0.6,20.5-1.1,30.9-3.1c7.4-1.4,13.9,6,9.9,13.2
				c-7.1,13.1-10.5,26.6-7.1,41.5c3.2,14,10.7,26.3,21.1,36c18.7,17.5,45.1,25.7,70,27.8c27.2,2.3,55.3-2.1,80.2-13.8
				c2.4-1.1,4.9-2.3,7.3-3.6c0-0.1,0-0.2,0.1-0.3c2.2-6.4,6.9-8.7,12-8.3c3.7-3.8,6.4-8.3,8.8-13.1c2.9-5.8,5.7-12.1,5.6-18.7
				c0-6.7-2.8-13-5.7-18.8C282.4,325.4,265.7,299.5,249,274z"/>
			<linearGradient id="SVGID_4_" gradientUnits="userSpaceOnUse" x1="571.505" y1="462" x2="571.505" y2="107.2268">
				<stop  offset="0" style="stop-color:#A6E61B"/>
				<stop  offset="0.9954" style="stop-color:#215C56"/>
			</linearGradient>
			<path class="st3" d="M648.1,298.1L648.1,298.1c1-3.9,2.3-7.7,3.8-11.4c0-0.1,0.1-0.2,0.1-0.4c0.4-0.9,0.7-1.8,1.1-2.6l0,0
				c1.1-2.6,2.3-5.2,3.6-7.7c0.1-0.3,0.3-0.5,0.4-0.8c0.3-0.7,0.7-1.3,1.1-2c0.2-0.4,0.4-0.7,0.6-1.1c0.3-0.6,0.7-1.2,1-1.8
				c0.3-0.4,0.5-0.9,0.8-1.3c0.5-0.8,0.9-1.6,1.4-2.4c0.4-0.7,0.8-1.3,1.2-1.9c0.3-0.4,0.5-0.8,0.8-1.3c0.4-0.6,0.8-1.2,1.1-1.8
				c0.3-0.4,0.5-0.8,0.8-1.2c0.4-0.6,0.9-1.3,1.3-1.9c0.2-0.3,0.4-0.6,0.7-1c0.7-1,1.3-1.9,2-2.8c18.2-25,41.4-45.5,68.3-59.8
				c-7.2-4-14.5-8.1-21.5-12.3c-22.3,14.1-43.6,30-65.5,44.8c-11.6,7.8-23.2,15.6-34.9,23.3c-5.4,3.6-10.8,7.2-16.7,9.9
				c-1.8,0.8-3.6,1.6-5.4,2.3c-3.6,3.6-7.2,7.2-10.8,10.8c-20.5,20.6-41.2,41.2-62.2,61.4c-6.9,6.6-19.3,0.2-16.3-9.7
				c0.5-1.7,1-3.4,1.5-5.1c1.4-4.8,5.1-6.9,8.8-6.9c21-20.3,42.2-40.4,62.8-61.1c19.4-19.6,40.2-39.2,56.2-62
				c5.1-7.3,14.3-18.2,5.5-25.8c-8.2-7-21.1-8.5-31.2-9.8c-13.5-1.8-27.1-2.1-40.7-2.9c-13.6-0.8-28.8-1.1-41.9-5.4
				c-12.7-4.2-22.4-17.4-15.2-30.8c3.1-5.8,8.2-10.8,12.8-15.5c3.8-3.9,7.7-7.7,11.8-11.2c-1.7-11.2-2.7-22.4-3.1-33.7
				c-17.4,11-34.6,22.2-52,33.2c-10.8,6.9-21.6,13.7-32.4,20.6c-5,3.1-9.9,6.5-15.3,8.9c-2.4,1.1-4.9,2.1-7.4,3
				c-0.4,10.7-0.7,21.4-0.5,32.1c0.1,3.9-2.7,7.2-6.2,8.3c-4.4,1.5-11.3,3.2-13,8.3c-2,6,1.6,14.2,3.2,19.9
				c4.2,15.5,8.9,30.8,13.1,46.3c13.6,49.8,23.2,108.5-4.9,154.9c3.9,11.8,8.2,23.5,12.8,35c3.1,7.7,6.4,15.2,10.1,22.6
				c0.8,1.5,3.4,7.5,5.7,10c2.9-3.9,6.7-7.5,9.9-10.7c4.3-4.4,8.9-8.5,13.6-12.5c10.3-8.9,20.9-17.3,31.6-25.6c5-3.8,10-7.5,15-11.2
				l0,0c2.9-2.1,5.7-4.1,8.6-6.2c0.1,0,0.1-0.1,0.2-0.1c2.9-2.1,5.9-4.1,8.8-6.2c1.3-0.9,2.5-1.7,3.8-2.6c4-2.8,8.1-5.7,12.3-8.4
				c0,0,0,0,0.1,0c1.3-0.9,2.7-1.8,4-2.6c0,0,0.1,0,0.1-0.1c1.3-0.9,2.7-1.7,4.1-2.5c0,0,0.1,0,0.1-0.1c1.4-0.8,2.7-1.6,4.1-2.4h0.1
				c1.4-0.8,2.8-1.6,4.2-2.3l0,0c0.6-0.3,1.2-0.6,1.8-0.9c11.6-5.7,20.4,9.9,10,17.5c-6.5,4.8-13.5,8.9-20.3,13.1
				c7.3,18.1,11.2,37.1,15.3,56.2c1.8,8.6,2.9,17.9,6,26.1c0.9,2.5,2.5,6,5.2,6.9c2.3,0.8,4.7-0.9,6.7-2
				c16.3-9.5,32.2-19.8,48.3-29.7c10.7-6.6,22.4-15.5,34.9-18.4c-6.7-19.5-13.8-38.8-19.9-58.5c-6.4-20.6-11.1-42.4-8.3-64.1
				C646.1,306.5,647,302.2,648.1,298.1z"/>
			<linearGradient id="SVGID_5_" gradientUnits="userSpaceOnUse" x1="339.4259" y1="462" x2="339.4259" y2="107.2268">
				<stop  offset="0" style="stop-color:#A6E61B"/>
				<stop  offset="0.9954" style="stop-color:#215C56"/>
			</linearGradient>
			<path class="st4" d="M401.4,379.2c0.7-1.2,1.4-2.3,2-3.5c12.9-23.9,15.1-52.3,12.7-79.1c-2.6-29-11.2-57-19.2-84.8
				c-2.2-7.7-4.4-15.4-6.4-23.2c-1.6-6-3.2-12.3-2.6-18.5c1.1-12.7,9.6-19.5,20-23.6c0.3-13.9,0.7-27.8,1.7-41.7
				c0.4-5.5,0.8-11,1.3-16.5c-18.4,11.9-37,23.6-55.5,35.4c-12,7.7-24,15.5-36.1,23.1c-8,5-16.1,10.5-24.6,14.9
				c-0.6,2.4-1.2,4.8-1.7,7.1c-1.8,9.4-3.4,18.8-4.7,28.2c-1.1,7.5-1.9,15.1-2.5,22.7c-0.3,3.7-0.5,7.4-0.8,11.2
				c-0.2,1.9-0.4,3.7-0.5,5.6c-0.1,0.6-0.1,1.2-0.2,1.9c0,0.2,0,0.4,0,0.6c2.2,4.2,0.9,9.7-4.2,11.1c-2.7,0.7-5.9,4.1-8.2,5.7
				c-2.2,1.6-4.4,3.3-6.6,5c-1.1,0.9-2.3,1.9-3.4,2.8c0.6,0.5,1.1,1.1,1.6,1.8c11.7,15.6,22.3,31.9,32.3,48.7
				c5,8.3,9.8,16.8,14.3,25.4c1.1,2.2,2.3,4.4,3.3,6.6l0,0c3,6.5,5.4,13.2,6.3,20.4c1.8,15.6-5.7,32.1-14.9,44.3
				c3.6,1.7,7.3,3.3,11.2,4.5c13,4.1,26.8,5.2,40.1,1.5c15.4-4.4,28.6-14.6,38.6-27.4l0,0l0,0C397,386.1,399.3,382.7,401.4,379.2
				L401.4,379.2z"/>
		</g>
	</g>
</g>
</svg>
