<?xml version="1.0" encoding="utf-8"?>
<!-- Generator: Adobe Illustrator 24.0.3, SVG Export Plug-In . SVG Version: 6.00 Build 0)  -->
<svg version="1.1" id="Layer_5" xmlns="http://www.w3.org/2000/svg" xmlns:xlink="http://www.w3.org/1999/xlink" x="0px" y="0px"
	 viewBox="0 0 792 612" style="enable-background:new 0 0 792 612;" xml:space="preserve">
<style type="text/css">
	.st0{fill:#6CBE45;}
</style>
<g>
	<path class="st0" d="M302.7,293v1.7c0.1,5.6,0.7,9.5,1.7,11.7c1,2.3,3.2,3.4,6.6,3.4c3.3,0,5.5-1.2,6.6-3.7c0.6-1.5,1-3.9,1-7.4
		v-50.3h15v50.1c0,6.1-1,11-3.1,14.6c-3.5,6.1-9.8,9.1-19,9.1c-9.1,0-15.3-2.4-18.4-7.3c-3.1-4.9-4.7-11.6-4.7-20V293H302.7z"/>
	<path class="st0" d="M405,313.9c-5.4,5.6-13.3,8.4-23.6,8.4c-10.3,0-18.1-2.8-23.6-8.4c-7.3-6.9-10.9-16.8-10.9-29.7
		c0-13.2,3.6-23.1,10.9-29.7c5.4-5.6,13.3-8.4,23.6-8.4c10.3,0,18.1,2.8,23.6,8.4c7.3,6.6,10.9,16.5,10.9,29.7
		C415.9,297.2,412.2,307.1,405,313.9z M395.6,303c3.5-4.4,5.2-10.6,5.2-18.8c0-8.1-1.8-14.3-5.2-18.7c-3.5-4.4-8.2-6.6-14.2-6.6
		s-10.7,2.2-14.3,6.6c-3.5,4.4-5.3,10.6-5.3,18.8s1.8,14.4,5.3,18.8c3.5,4.4,8.3,6.6,14.3,6.6S392.1,307.4,395.6,303z"/>
	<path class="st0" d="M473.5,250.2c2.7,1.1,4.9,2.8,6.7,5c1.5,1.8,2.7,3.8,3.6,6.1c0.9,2.2,1.3,4.7,1.3,7.6c0,3.4-0.9,6.8-2.6,10.1
		c-1.7,3.3-4.6,5.6-8.5,7c3.3,1.3,5.7,3.2,7.1,5.7c1.4,2.5,2.1,6.2,2.1,11.3v4.8c0,3.3,0.1,5.5,0.4,6.7c0.4,1.9,1.3,3.2,2.8,4.1v1.8
		h-16.6c-0.5-1.6-0.8-2.9-1-3.9c-0.4-2-0.6-4.1-0.6-6.2l-0.1-6.7c-0.1-4.6-0.9-7.6-2.4-9.2c-1.5-1.5-4.4-2.3-8.6-2.3h-14.7v28.2
		h-14.7v-72h34.4C467,248.4,470.8,249.1,473.5,250.2z M442.4,260.8v19.3h16.2c3.2,0,5.6-0.4,7.2-1.2c2.8-1.4,4.3-4.1,4.3-8.1
		c0-4.4-1.4-7.3-4.1-8.8c-1.5-0.8-3.9-1.3-7-1.3H442.4z"/>
</g>
</svg>
