<?xml version="1.0" encoding="utf-8"?>
<!-- Generator: Adobe Illustrator 24.0.3, SVG Export Plug-In . SVG Version: 6.00 Build 0)  -->
<svg version="1.1" id="BLINGS" xmlns="http://www.w3.org/2000/svg" xmlns:xlink="http://www.w3.org/1999/xlink" x="0px" y="0px"
	 viewBox="0 0 792 612" style="enable-background:new 0 0 792 612;" xml:space="preserve">
<style type="text/css">
	.st0{fill:#C7EAF8;}
	.st1{fill:#FFFFFF;}
</style>
<path class="st0" d="M223.9,229.6c0,0,8.7-58.8,18.8-63c10.1-4.2,63.6-7.2,63.6-7.2s-54.7-6.4-60.7-14.4c-6-8,0.3-67.5,0.3-67.5
	s-18.3,64.6-26.4,68.6s-67,5.5-67,5.5s61.1,8.8,65.1,16.9S223.9,229.6,223.9,229.6z"/>
<path class="st1" d="M253.1,157c-5.8,0.9-10.6,1.9-13.2,3c-1.8,0.8-3.6,2.1-5.1,3.9c-2.7,3.3-5.2,8.9-7.4,15.6
	c-0.9-6.4-2-11.6-3.2-14.1c-1.4-2.8-4-5.9-15.7-9.6c10.5-1.2,12.9-2.4,14.2-3c1.4-0.7,2.8-1.8,4-3.3c0,0,0,0,0,0
	c2.7-3.3,5.9-9.9,9.1-17.8c0.5,13.4,2.6,16.1,3.9,17.9C241.5,151.8,244.6,154.3,253.1,157z"/>
</svg>
