<?xml version="1.0" encoding="utf-8"?>
<!-- Generator: Adobe Illustrator 24.0.3, SVG Export Plug-In . SVG Version: 6.00 Build 0)  -->
<svg version="1.1" id="Layer_7" xmlns="http://www.w3.org/2000/svg" xmlns:xlink="http://www.w3.org/1999/xlink" x="0px" y="0px"
	 viewBox="0 0 792 612" style="enable-background:new 0 0 792 612;" xml:space="preserve">
<style type="text/css">
	.st0{fill:#00B1EF;}
</style>
<path class="st0" d="M18.6,220.5c-1.6-3.3-2.6-6.9-2.6-10.7c0-14.2,12.7-25.8,28.5-26.3C49.4,164,63,140.8,100,140.8
	c36.9,0,52.6,21.4,59.4,39.5c1-0.1,2-0.2,3-0.2c13.7,0,24.8,11,25,24.6c13,1.1,28.8,4.8,39.3,15.4c0,0,10-16,29.3-16
	s35.3,20.7,35.3,38s-10,46-43.3,46H30.7c0,0-26-10-26-40.7C4.7,234.8,11.1,226.2,18.6,220.5z"/>
</svg>
