<?xml version="1.0" encoding="utf-8"?>
<!-- Generator: Adobe Illustrator 24.0.3, SVG Export Plug-In . SVG Version: 6.00 Build 0)  -->
<svg version="1.1" id="BLINGS" xmlns="http://www.w3.org/2000/svg" xmlns:xlink="http://www.w3.org/1999/xlink" x="0px" y="0px"
	 viewBox="0 0 792 612" style="enable-background:new 0 0 792 612;" xml:space="preserve">
<style type="text/css">
	.st0{fill:#C7EAF8;}
	.st1{fill:#FFFFFF;}
</style>
<path class="st0" d="M522.2,495.8c0,0,42.2-41.8,52.8-39.1s55.2,32.4,55.2,32.4s-39.9-38-39.9-47.9c0-10,40.8-53.8,40.8-53.8
	s-53.4,40.6-62.3,39c-8.9-1.7-56.8-35.8-56.8-35.8s43.5,43.7,41.9,52.6C552.1,452.2,522.2,495.8,522.2,495.8z"/>
<path class="st1" d="M589.1,455.2c-5.2-2.8-9.6-4.8-12.3-5.5c-1.9-0.5-4.1-0.5-6.4,0.1c-4.1,1-9.5,4-15.3,8.1
	c3.1-5.7,5.4-10.4,5.9-13.2c0.6-3.1,0.3-7.1-6.7-17.1c9.2,5.4,11.7,5.8,13.2,6.1c1.6,0.3,3.3,0.2,5.2-0.2c0,0,0,0,0,0
	c4.2-1,10.7-4.4,17.9-8.8c-7.6,11-7.6,14.5-7.6,16.6C583,444.1,584,447.9,589.1,455.2z"/>
</svg>
